<mxfile host="app.diagrams.net" agent="Mozilla/5.0 (Windows NT 10.0; Win64; x64; rv:133.0) Gecko/20100101 Firefox/133.0" version="24.9.2">
  <diagram name="Página-1" id="lAwVwDmzm2ZB671i7lFZ">
    <mxGraphModel grid="1" page="1" gridSize="10" guides="1" tooltips="1" connect="1" arrows="1" fold="1" pageScale="1" pageWidth="1169" pageHeight="827" math="0" shadow="0">
      <root>
        <mxCell id="0" />
        <mxCell id="1" parent="0" />
        <mxCell id="YZ2MhGtCGNL4RignCg7N-2" value="" style="whiteSpace=wrap;html=1;aspect=fixed;" vertex="1" parent="1">
          <mxGeometry x="30" y="70" width="150" height="150" as="geometry" />
        </mxCell>
        <mxCell id="YZ2MhGtCGNL4RignCg7N-3" value="PROFESOR" style="rounded=0;whiteSpace=wrap;html=1;" vertex="1" parent="1">
          <mxGeometry x="30" y="40" width="150" height="30" as="geometry" />
        </mxCell>
        <mxCell id="YZ2MhGtCGNL4RignCg7N-4" value="PK" style="text;html=1;align=center;verticalAlign=middle;resizable=0;points=[];autosize=1;strokeColor=none;fillColor=none;" vertex="1" parent="1">
          <mxGeometry x="30" y="70" width="40" height="30" as="geometry" />
        </mxCell>
        <mxCell id="YZ2MhGtCGNL4RignCg7N-5" value="DNI" style="text;html=1;align=center;verticalAlign=middle;resizable=0;points=[];autosize=1;strokeColor=none;fillColor=none;" vertex="1" parent="1">
          <mxGeometry x="90" y="70" width="40" height="30" as="geometry" />
        </mxCell>
        <mxCell id="YZ2MhGtCGNL4RignCg7N-6" value="Nombre" style="text;html=1;align=center;verticalAlign=middle;resizable=0;points=[];autosize=1;strokeColor=none;fillColor=none;" vertex="1" parent="1">
          <mxGeometry x="75" y="100" width="70" height="30" as="geometry" />
        </mxCell>
        <mxCell id="YZ2MhGtCGNL4RignCg7N-7" value="Dirección" style="text;html=1;align=center;verticalAlign=middle;resizable=0;points=[];autosize=1;strokeColor=none;fillColor=none;" vertex="1" parent="1">
          <mxGeometry x="70" y="130" width="80" height="30" as="geometry" />
        </mxCell>
        <mxCell id="YZ2MhGtCGNL4RignCg7N-8" value="Telefono" style="text;html=1;align=center;verticalAlign=middle;resizable=0;points=[];autosize=1;strokeColor=none;fillColor=none;" vertex="1" parent="1">
          <mxGeometry x="75" y="160" width="70" height="30" as="geometry" />
        </mxCell>
        <mxCell id="YZ2MhGtCGNL4RignCg7N-9" value="" style="whiteSpace=wrap;html=1;aspect=fixed;" vertex="1" parent="1">
          <mxGeometry x="280" y="110" width="140" height="140" as="geometry" />
        </mxCell>
        <mxCell id="YZ2MhGtCGNL4RignCg7N-10" value="MÓDULO" style="rounded=0;whiteSpace=wrap;html=1;" vertex="1" parent="1">
          <mxGeometry x="280" y="80" width="140" height="30" as="geometry" />
        </mxCell>
        <mxCell id="YZ2MhGtCGNL4RignCg7N-11" value="PK" style="text;html=1;align=center;verticalAlign=middle;resizable=0;points=[];autosize=1;strokeColor=none;fillColor=none;" vertex="1" parent="1">
          <mxGeometry x="280" y="110" width="40" height="30" as="geometry" />
        </mxCell>
        <mxCell id="YZ2MhGtCGNL4RignCg7N-12" value="Código" style="text;html=1;align=center;verticalAlign=middle;resizable=0;points=[];autosize=1;strokeColor=none;fillColor=none;" vertex="1" parent="1">
          <mxGeometry x="330" y="110" width="60" height="30" as="geometry" />
        </mxCell>
        <mxCell id="YZ2MhGtCGNL4RignCg7N-13" value="DNI" style="text;html=1;align=center;verticalAlign=middle;resizable=0;points=[];autosize=1;strokeColor=none;fillColor=none;" vertex="1" parent="1">
          <mxGeometry x="340" y="140" width="40" height="30" as="geometry" />
        </mxCell>
        <mxCell id="YZ2MhGtCGNL4RignCg7N-14" value="Nombre" style="text;html=1;align=center;verticalAlign=middle;resizable=0;points=[];autosize=1;strokeColor=none;fillColor=none;" vertex="1" parent="1">
          <mxGeometry x="325" y="170" width="70" height="30" as="geometry" />
        </mxCell>
        <mxCell id="YZ2MhGtCGNL4RignCg7N-16" value="FK" style="text;html=1;align=center;verticalAlign=middle;resizable=0;points=[];autosize=1;strokeColor=none;fillColor=none;" vertex="1" parent="1">
          <mxGeometry x="285" y="140" width="40" height="30" as="geometry" />
        </mxCell>
        <mxCell id="YZ2MhGtCGNL4RignCg7N-17" style="edgeStyle=orthogonalEdgeStyle;rounded=0;orthogonalLoop=1;jettySize=auto;html=1;exitX=0;exitY=0.25;exitDx=0;exitDy=0;entryX=1.027;entryY=0.073;entryDx=0;entryDy=0;entryPerimeter=0;" edge="1" parent="1" source="YZ2MhGtCGNL4RignCg7N-9" target="YZ2MhGtCGNL4RignCg7N-2">
          <mxGeometry relative="1" as="geometry">
            <Array as="points">
              <mxPoint x="280" y="150" />
              <mxPoint x="230" y="150" />
              <mxPoint x="230" y="81" />
            </Array>
          </mxGeometry>
        </mxCell>
        <mxCell id="YZ2MhGtCGNL4RignCg7N-18" value="" style="rounded=0;whiteSpace=wrap;html=1;fillColor=#707000;" vertex="1" parent="1">
          <mxGeometry x="550" y="130" width="150" height="90" as="geometry" />
        </mxCell>
        <mxCell id="YZ2MhGtCGNL4RignCg7N-19" value="mátriculo" style="rounded=0;whiteSpace=wrap;html=1;" vertex="1" parent="1">
          <mxGeometry x="550" y="100" width="150" height="30" as="geometry" />
        </mxCell>
        <mxCell id="YZ2MhGtCGNL4RignCg7N-20" value="PK" style="text;html=1;align=center;verticalAlign=middle;resizable=0;points=[];autosize=1;strokeColor=none;fillColor=none;" vertex="1" parent="1">
          <mxGeometry x="550" y="130" width="40" height="30" as="geometry" />
        </mxCell>
        <mxCell id="YZ2MhGtCGNL4RignCg7N-21" value="FK1" style="text;html=1;align=center;verticalAlign=middle;resizable=0;points=[];autosize=1;strokeColor=none;fillColor=none;" vertex="1" parent="1">
          <mxGeometry x="590" y="130" width="50" height="30" as="geometry" />
        </mxCell>
        <mxCell id="YZ2MhGtCGNL4RignCg7N-22" value="Expediente" style="text;html=1;align=center;verticalAlign=middle;resizable=0;points=[];autosize=1;strokeColor=none;fillColor=none;" vertex="1" parent="1">
          <mxGeometry x="630" y="130" width="80" height="30" as="geometry" />
        </mxCell>
        <mxCell id="YZ2MhGtCGNL4RignCg7N-23" value="PK" style="text;html=1;align=center;verticalAlign=middle;resizable=0;points=[];autosize=1;strokeColor=none;fillColor=none;" vertex="1" parent="1">
          <mxGeometry x="550" y="170" width="40" height="30" as="geometry" />
        </mxCell>
        <mxCell id="YZ2MhGtCGNL4RignCg7N-24" value="FK2" style="text;html=1;align=center;verticalAlign=middle;resizable=0;points=[];autosize=1;strokeColor=none;fillColor=none;" vertex="1" parent="1">
          <mxGeometry x="590" y="170" width="50" height="30" as="geometry" />
        </mxCell>
        <mxCell id="YZ2MhGtCGNL4RignCg7N-25" value="Código" style="text;html=1;align=center;verticalAlign=middle;resizable=0;points=[];autosize=1;strokeColor=none;fillColor=none;" vertex="1" parent="1">
          <mxGeometry x="630" y="170" width="60" height="30" as="geometry" />
        </mxCell>
        <mxCell id="YZ2MhGtCGNL4RignCg7N-35" style="edgeStyle=orthogonalEdgeStyle;rounded=0;orthogonalLoop=1;jettySize=auto;html=1;exitX=1;exitY=0.75;exitDx=0;exitDy=0;entryX=1.013;entryY=0.067;entryDx=0;entryDy=0;entryPerimeter=0;" edge="1" parent="1" source="YZ2MhGtCGNL4RignCg7N-26" target="YZ2MhGtCGNL4RignCg7N-26">
          <mxGeometry relative="1" as="geometry">
            <mxPoint x="1060" y="140" as="targetPoint" />
            <Array as="points">
              <mxPoint x="1050" y="260" />
              <mxPoint x="1070" y="260" />
              <mxPoint x="1070" y="140" />
            </Array>
          </mxGeometry>
        </mxCell>
        <mxCell id="YZ2MhGtCGNL4RignCg7N-26" value="" style="whiteSpace=wrap;html=1;aspect=fixed;" vertex="1" parent="1">
          <mxGeometry x="900" y="130" width="150" height="150" as="geometry" />
        </mxCell>
        <mxCell id="YZ2MhGtCGNL4RignCg7N-27" value="ALUMNO" style="rounded=0;whiteSpace=wrap;html=1;" vertex="1" parent="1">
          <mxGeometry x="900" y="100" width="150" height="30" as="geometry" />
        </mxCell>
        <mxCell id="YZ2MhGtCGNL4RignCg7N-28" value="PK" style="text;html=1;align=center;verticalAlign=middle;resizable=0;points=[];autosize=1;strokeColor=none;fillColor=none;" vertex="1" parent="1">
          <mxGeometry x="900" y="130" width="40" height="30" as="geometry" />
        </mxCell>
        <mxCell id="YZ2MhGtCGNL4RignCg7N-29" value="Expediente" style="text;html=1;align=center;verticalAlign=middle;resizable=0;points=[];autosize=1;strokeColor=none;fillColor=none;" vertex="1" parent="1">
          <mxGeometry x="940" y="130" width="80" height="30" as="geometry" />
        </mxCell>
        <mxCell id="YZ2MhGtCGNL4RignCg7N-30" value="Nombre" style="text;html=1;align=center;verticalAlign=middle;resizable=0;points=[];autosize=1;strokeColor=none;fillColor=none;" vertex="1" parent="1">
          <mxGeometry x="945" y="160" width="70" height="30" as="geometry" />
        </mxCell>
        <mxCell id="YZ2MhGtCGNL4RignCg7N-31" value="Apellidos" style="text;html=1;align=center;verticalAlign=middle;resizable=0;points=[];autosize=1;strokeColor=none;fillColor=none;" vertex="1" parent="1">
          <mxGeometry x="945" y="190" width="70" height="30" as="geometry" />
        </mxCell>
        <mxCell id="YZ2MhGtCGNL4RignCg7N-32" value="FechaN." style="text;html=1;align=center;verticalAlign=middle;resizable=0;points=[];autosize=1;strokeColor=none;fillColor=none;" vertex="1" parent="1">
          <mxGeometry x="945" y="220" width="70" height="30" as="geometry" />
        </mxCell>
        <mxCell id="YZ2MhGtCGNL4RignCg7N-33" value="FK" style="text;html=1;align=center;verticalAlign=middle;resizable=0;points=[];autosize=1;strokeColor=none;fillColor=none;" vertex="1" parent="1">
          <mxGeometry x="900" y="250" width="40" height="30" as="geometry" />
        </mxCell>
        <mxCell id="YZ2MhGtCGNL4RignCg7N-34" value="ExpDelegado" style="text;html=1;align=center;verticalAlign=middle;resizable=0;points=[];autosize=1;strokeColor=none;fillColor=none;" vertex="1" parent="1">
          <mxGeometry x="930" y="250" width="100" height="30" as="geometry" />
        </mxCell>
        <mxCell id="YZ2MhGtCGNL4RignCg7N-36" style="edgeStyle=orthogonalEdgeStyle;rounded=0;orthogonalLoop=1;jettySize=auto;html=1;exitX=1;exitY=0.25;exitDx=0;exitDy=0;entryX=-0.075;entryY=0.367;entryDx=0;entryDy=0;entryPerimeter=0;" edge="1" parent="1" source="YZ2MhGtCGNL4RignCg7N-18" target="YZ2MhGtCGNL4RignCg7N-28">
          <mxGeometry relative="1" as="geometry">
            <Array as="points">
              <mxPoint x="700" y="141" />
            </Array>
          </mxGeometry>
        </mxCell>
        <mxCell id="YZ2MhGtCGNL4RignCg7N-37" style="edgeStyle=orthogonalEdgeStyle;rounded=0;orthogonalLoop=1;jettySize=auto;html=1;exitX=0;exitY=0.5;exitDx=0;exitDy=0;entryX=1.021;entryY=0.129;entryDx=0;entryDy=0;entryPerimeter=0;" edge="1" parent="1" source="YZ2MhGtCGNL4RignCg7N-18" target="YZ2MhGtCGNL4RignCg7N-9">
          <mxGeometry relative="1" as="geometry">
            <Array as="points">
              <mxPoint x="550" y="190" />
              <mxPoint x="485" y="190" />
              <mxPoint x="485" y="128" />
            </Array>
          </mxGeometry>
        </mxCell>
      </root>
    </mxGraphModel>
  </diagram>
</mxfile>
